<?xml version="1.0" encoding="utf-8"?>
<!-- Generator: Adobe Illustrator 16.0.0, SVG Export Plug-In . SVG Version: 6.00 Build 0)  -->
<!DOCTYPE svg PUBLIC "-//W3C//DTD SVG 1.1//EN" "http://www.w3.org/Graphics/SVG/1.1/DTD/svg11.dtd">
<svg version="1.1" id="Calque_1" xmlns="http://www.w3.org/2000/svg" xmlns:xlink="http://www.w3.org/1999/xlink" x="0px" y="0px"
	 width="8px" height="20px" viewBox="0 0 8 20" enable-background="new 0 0 8 20" xml:space="preserve">
<rect x="1.76" y="14.336" transform="matrix(-0.6487 -0.7611 0.7611 -0.6487 -7.7823 25.5851)" fill="#231F20" width="0.508" height="0.506"/>
<rect x="1.397" y="13.91" transform="matrix(-0.6502 -0.7598 0.7598 -0.6502 -8.038 24.6281)" fill="#231F20" width="0.508" height="0.508"/>
<rect x="1.034" y="13.485" transform="matrix(-0.6487 -0.7611 0.7611 -0.6487 -8.3332 23.6306)" fill="#231F20" width="0.508" height="0.507"/>
<rect x="0.67" y="13.061" transform="matrix(-0.6503 -0.7597 0.7597 -0.6503 -8.5894 22.676)" fill="#231F20" width="0.509" height="0.508"/>
<rect x="0.309" y="12.637" transform="matrix(-0.6506 -0.7595 0.7595 -0.6506 -8.8615 21.7029)" fill="#231F20" width="0.507" height="0.507"/>
<rect x="0.359" y="11.855" transform="matrix(-0.6477 -0.7619 0.7619 -0.6477 -8.2144 20.4195)" fill="#231F20" width="0.509" height="0.507"/>
<rect x="2.175" y="13.981" transform="matrix(-0.6511 -0.759 0.759 -0.6511 -6.7939 25.3477)" fill="#F1CB14" width="0.507" height="0.508"/>
<rect x="1.811" y="13.556" transform="matrix(-0.6483 -0.7614 0.7614 -0.6483 -7.1097 24.3338)" fill="#F1CB14" width="0.509" height="0.507"/>
<rect x="1.449" y="13.13" transform="matrix(-0.6498 -0.7601 0.7601 -0.6498 -7.3645 23.3753)" fill="#F1CB14" width="0.509" height="0.508"/>
<rect x="1.085" y="12.706" transform="matrix(-0.6498 -0.7601 0.7601 -0.6498 -7.6405 22.3985)" fill="#F1CB14" width="0.509" height="0.507"/>
<rect x="0.724" y="12.281" transform="matrix(-0.6506 -0.7595 0.7595 -0.6506 -7.9069 21.4322)" fill="#F1CB14" width="0.507" height="0.508"/>
<rect x="2.602" y="13.616" transform="matrix(-0.6511 -0.759 0.759 -0.6511 -5.8133 25.0699)" fill="#F4EB4B" width="0.507" height="0.51"/>
<rect x="2.239" y="13.191" transform="matrix(-0.6487 -0.7611 0.7611 -0.6487 -6.1231 24.063)" fill="#F4EB4B" width="0.508" height="0.507"/>
<rect x="1.875" y="12.765" transform="matrix(-0.6488 -0.7609 0.7609 -0.6488 -6.3962 23.0872)" fill="#F4EB4B" width="0.509" height="0.509"/>
<rect x="1.512" y="12.341" transform="matrix(-0.6498 -0.7601 0.7601 -0.6498 -6.6596 22.121)" fill="#F4EB4B" width="0.509" height="0.508"/>
<rect x="1.151" y="11.916" transform="matrix(-0.65 -0.7599 0.7599 -0.65 -6.9328 21.1488)" fill="#F4EB4B" width="0.506" height="0.509"/>
<rect x="0.786" y="11.491" transform="matrix(-0.6492 -0.7606 0.7606 -0.6492 -7.2182 20.1612)" fill="#F1CB14" width="0.508" height="0.508"/>
<rect x="0.423" y="11.067" transform="matrix(-0.6494 -0.7605 0.7605 -0.6494 -7.4914 19.1866)" fill="#231F20" width="0.51" height="0.507"/>
<rect x="1.202" y="11.138" transform="matrix(-0.6511 -0.759 0.759 -0.6511 -6.2435 19.9141)" fill="#F1CB14" width="0.507" height="0.509"/>
<rect x="0.838" y="10.712" transform="matrix(-0.6494 -0.7605 0.7605 -0.6494 -6.5376 18.9183)" fill="#F1CB14" width="0.51" height="0.508"/>
<rect x="3.017" y="13.262" transform="matrix(-0.6492 -0.7606 0.7606 -0.6492 -4.886 24.7778)" fill="#F4EB4B" width="0.508" height="0.508"/>
<rect x="2.654" y="12.837" transform="matrix(-0.6506 -0.7595 0.7595 -0.6506 -5.1438 23.8158)" fill="#F4EB4B" width="0.507" height="0.509"/>
<rect x="2.289" y="12.411" transform="matrix(-0.6488 -0.7609 0.7609 -0.6488 -5.4429 22.8181)" fill="#F4EB4B" width="0.509" height="0.507"/>
<rect x="1.927" y="11.986" transform="matrix(-0.6507 -0.7593 0.7593 -0.6507 -5.6946 21.8619)" fill="#F4EB4B" width="0.508" height="0.51"/>
<rect x="1.565" y="11.562" transform="matrix(-0.6496 -0.7603 0.7603 -0.6496 -5.9834 20.8742)" fill="#F4EB4B" width="0.507" height="0.508"/>
<rect x="0.476" y="10.288" transform="matrix(-0.6496 -0.7603 0.7603 -0.6496 -6.8108 17.9455)" fill="#231F20" width="0.507" height="0.508"/>
<rect x="3.443" y="12.899" transform="matrix(-0.6506 -0.7595 0.7595 -0.6506 -3.8885 24.5165)" fill="#F4EB4B" width="0.507" height="0.508"/>
<rect x="3.078" y="12.474" transform="matrix(-0.6487 -0.7611 0.7611 -0.6487 -4.1926 23.5186)" fill="#F4EB4B" width="0.508" height="0.507"/>
<rect x="2.715" y="12.049" transform="matrix(-0.6492 -0.7606 0.7606 -0.6492 -4.4603 22.5484)" fill="#F4EB4B" width="0.508" height="0.507"/>
<rect x="2.352" y="11.623" transform="matrix(-0.6483 -0.7614 0.7614 -0.6483 -4.7469 21.5601)" fill="#F4EB4B" width="0.509" height="0.506"/>
<rect x="1.989" y="11.199" transform="matrix(-0.6498 -0.7601 0.7601 -0.6498 -5.0045 20.5994)" fill="#F4EB4B" width="0.509" height="0.508"/>
<rect x="1.627" y="10.774" transform="matrix(-0.6502 -0.7598 0.7598 -0.6502 -5.2749 19.6259)" fill="#F4EB4B" width="0.508" height="0.507"/>
<rect x="1.263" y="10.349" transform="matrix(-0.6494 -0.7605 0.7605 -0.6494 -5.5603 18.6424)" fill="#F1CB14" width="0.51" height="0.508"/>
<rect x="0.901" y="9.925" transform="matrix(-0.6496 -0.7603 0.7603 -0.6496 -5.8335 17.6694)" fill="#F1CB14" width="0.507" height="0.508"/>
<rect x="0.538" y="9.499" transform="matrix(-0.6496 -0.7603 0.7603 -0.6496 -6.1098 16.6904)" fill="#231F20" width="0.507" height="0.507"/>
<rect x="2.042" y="10.419" transform="matrix(-0.6496 -0.7603 0.7603 -0.6496 -4.3279 19.3525)" fill="#F4EB4B" width="0.507" height="0.509"/>
<rect x="1.678" y="9.994" transform="matrix(-0.6498 -0.7601 0.7601 -0.6498 -4.6011 18.3774)" fill="#F4EB4B" width="0.509" height="0.509"/>
<rect x="3.857" y="12.543" transform="matrix(-0.6487 -0.7611 0.7611 -0.6487 -2.9625 24.2271)" fill="#F4EB4B" width="0.508" height="0.508"/>
<rect x="3.493" y="12.118" transform="matrix(-0.6492 -0.7606 0.7606 -0.6492 -3.2302 23.2554)" fill="#F4EB4B" width="0.508" height="0.509"/>
<rect x="3.13" y="11.694" transform="matrix(-0.6503 -0.7597 0.7597 -0.6503 -3.4907 22.2887)" fill="#F4EB4B" width="0.509" height="0.508"/>
<rect x="2.767" y="11.268" transform="matrix(-0.6483 -0.7614 0.7614 -0.6483 -3.7928 21.2928)" fill="#F4EB4B" width="0.509" height="0.509"/>
<rect x="2.404" y="10.843" transform="matrix(-0.6497 -0.7602 0.7602 -0.6497 -4.0511 20.329)" fill="#F4EB4B" width="0.508" height="0.509"/>
<rect x="1.316" y="9.569" transform="matrix(-0.6502 -0.7598 0.7598 -0.6502 -4.8736 17.4044)" fill="#F1CB14" width="0.508" height="0.509"/>
<rect x="0.953" y="9.144" transform="matrix(-0.6502 -0.7598 0.7598 -0.6502 -5.1499 16.4256)" fill="#F1CB14" width="0.508" height="0.508"/>
<rect x="0.59" y="8.72" transform="matrix(-0.6491 -0.7607 0.7607 -0.6491 -5.435 15.4403)" fill="#231F20" width="0.508" height="0.508"/>
<rect x="4.272" y="12.189" transform="matrix(-0.6511 -0.759 0.759 -0.6511 -1.9731 23.9817)" fill="#F4EB4B" width="0.507" height="0.51"/>
<rect x="3.908" y="11.765" transform="matrix(-0.6487 -0.7611 0.7611 -0.6487 -2.2853 22.9821)" fill="#F4EB4B" width="0.508" height="0.508"/>
<rect x="3.545" y="11.339" transform="matrix(-0.6498 -0.7601 0.7601 -0.6498 -2.5449 22.014)" fill="#F4EB4B" width="0.509" height="0.509"/>
<rect x="3.182" y="10.914" transform="matrix(-0.6493 -0.7605 0.7605 -0.6493 -2.8261 21.0332)" fill="#F4EB4B" width="0.509" height="0.507"/>
<rect x="2.819" y="10.49" transform="matrix(-0.6497 -0.7602 0.7602 -0.6497 -3.0975 20.0609)" fill="#F4EB4B" width="0.508" height="0.508"/>
<rect x="2.457" y="10.065" transform="matrix(-0.6496 -0.7603 0.7603 -0.6496 -3.3734 19.0834)" fill="#F4EB4B" width="0.507" height="0.508"/>
<rect x="2.093" y="9.64" transform="matrix(-0.6487 -0.761 0.761 -0.6487 -3.6594 18.0995)" fill="#F4EB4B" width="0.509" height="0.508"/>
<rect x="1.731" y="9.216" transform="matrix(-0.6502 -0.7598 0.7598 -0.6502 -3.9199 17.135)" fill="#F4EB4B" width="0.508" height="0.509"/>
<rect x="1.367" y="8.79" transform="matrix(-0.6497 -0.7602 0.7602 -0.6497 -4.2008 16.1526)" fill="#F1CB14" width="0.508" height="0.508"/>
<rect x="1.004" y="8.365" transform="matrix(-0.6502 -0.7597 0.7597 -0.6502 -4.4723 15.1798)" fill="#231F20" width="0.508" height="0.508"/>
<rect x="2.871" y="9.71" transform="matrix(-0.6497 -0.7602 0.7602 -0.6497 -2.4193 18.8139)" fill="#F4EB4B" width="0.508" height="0.509"/>
<rect x="2.507" y="9.285" transform="matrix(-0.6498 -0.7601 0.7601 -0.6498 -2.6935 17.8382)" fill="#F4EB4B" width="0.509" height="0.509"/>
<rect x="4.687" y="11.835" transform="matrix(-0.6475 -0.762 0.762 -0.6475 -1.0726 23.6816)" fill="#231F20" width="0.507" height="0.508"/>
<rect x="4.323" y="11.409" transform="matrix(-0.6492 -0.7606 0.7606 -0.6492 -1.3227 22.7181)" fill="#231F20" width="0.508" height="0.51"/>
<rect x="3.959" y="10.984" transform="matrix(-0.6498 -0.7601 0.7601 -0.6498 -1.5894 21.7448)" fill="#231F20" width="0.509" height="0.508"/>
<rect x="3.597" y="10.56" transform="matrix(-0.6497 -0.7602 0.7602 -0.6497 -1.868 20.7676)" fill="#F4EB4B" width="0.508" height="0.509"/>
<rect x="3.234" y="10.135" transform="matrix(-0.6487 -0.7611 0.7611 -0.6487 -2.1561 19.783)" fill="#F4EB4B" width="0.508" height="0.508"/>
<rect x="2.146" y="8.861" transform="matrix(-0.6502 -0.7598 0.7598 -0.6502 -2.9659 16.8648)" fill="#F4EB4B" width="0.508" height="0.509"/>
<rect x="1.783" y="8.435" transform="matrix(-0.6496 -0.7603 0.7603 -0.6496 -3.2473 15.8827)" fill="#F1CB14" width="0.507" height="0.509"/>
<rect x="1.419" y="8.01" transform="matrix(-0.6491 -0.7607 0.7607 -0.6491 -3.5272 14.9023)" fill="#F1CB14" width="0.508" height="0.508"/>
<rect x="1.057" y="7.586" transform="matrix(-0.6496 -0.7603 0.7603 -0.6496 -3.7987 13.9304)" fill="#231F20" width="0.507" height="0.509"/>
<rect x="4.022" y="10.197" transform="matrix(-0.6493 -0.7605 0.7605 -0.6493 -0.8944 20.4879)" fill="#231F20" width="0.509" height="0.507"/>
<rect x="3.66" y="9.772" transform="matrix(-0.6496 -0.7603 0.7603 -0.6496 -1.1656 19.5141)" fill="#F4EB4B" width="0.507" height="0.508"/>
<rect x="3.297" y="9.347" transform="matrix(-0.6491 -0.7607 0.7607 -0.6491 -1.4471 18.5342)" fill="#F4EB4B" width="0.508" height="0.508"/>
<rect x="2.933" y="8.922" transform="matrix(-0.6504 -0.7596 0.7596 -0.6504 -1.709 17.5655)" fill="#F4EB4B" width="0.51" height="0.508"/>
<rect x="2.572" y="8.498" transform="matrix(-0.6491 -0.7607 0.7607 -0.6491 -1.9968 16.5819)" fill="#F4EB4B" width="0.508" height="0.507"/>
<rect x="2.208" y="8.072" transform="matrix(-0.6497 -0.7602 0.7602 -0.6497 -2.268 15.6067)" fill="#F4EB4B" width="0.508" height="0.508"/>
<rect x="1.845" y="7.647" transform="matrix(-0.6496 -0.7603 0.7603 -0.6496 -2.5447 14.6294)" fill="#F1CB14" width="0.507" height="0.507"/>
<rect x="1.482" y="7.223" transform="matrix(-0.6491 -0.7607 0.7607 -0.6491 -2.8244 13.6508)" fill="#231F20" width="0.508" height="0.508"/>
<rect x="3.712" y="8.992" transform="matrix(-0.6487 -0.7611 0.7611 -0.6487 -0.4982 18.2617)" fill="#F4EB4B" width="0.508" height="0.507"/>
<rect x="3.348" y="8.567" transform="matrix(-0.6509 -0.7592 0.7592 -0.6509 -0.7499 17.2982)" fill="#F4EB4B" width="0.509" height="0.508"/>
<rect x="4.075" y="9.417" transform="matrix(-0.6497 -0.7602 0.7602 -0.6497 -0.2102 19.2449)" fill="#231F20" width="0.508" height="0.508"/>
<rect x="2.987" y="8.143" transform="matrix(-0.6496 -0.7603 0.7603 -0.6496 -1.0385 16.3153)" fill="#F4EB4B" width="0.507" height="0.508"/>
<rect x="2.623" y="7.718" transform="matrix(-0.6502 -0.7598 0.7598 -0.6502 -1.3097 15.3398)" fill="#F4EB4B" width="0.508" height="0.508"/>
<rect x="2.26" y="7.293" transform="matrix(-0.6502 -0.7598 0.7598 -0.6502 -1.5856 14.3632)" fill="#F1CB14" width="0.508" height="0.508"/>
<rect x="1.898" y="6.869" transform="matrix(-0.6491 -0.7607 0.7607 -0.6491 -1.8697 13.3827)" fill="#231F20" width="0.508" height="0.507"/>
<rect x="4.502" y="9.053" transform="matrix(-0.648 -0.7616 0.7616 -0.648 0.7485 18.9597)" fill="#231F20" width="0.507" height="0.507"/>
<rect x="4.138" y="8.628" transform="matrix(-0.6502 -0.7598 0.7598 -0.6502 0.4986 17.9938)" fill="#F4EB4B" width="0.508" height="0.508"/>
<rect x="3.774" y="8.203" transform="matrix(-0.6494 -0.7605 0.7605 -0.6494 0.2141 17.0128)" fill="#F4EB4B" width="0.51" height="0.508"/>
<rect x="3.413" y="7.779" transform="matrix(-0.6496 -0.7603 0.7603 -0.6496 -0.059 16.0387)" fill="#F4EB4B" width="0.507" height="0.508"/>
<rect x="3.049" y="7.353" transform="matrix(-0.6496 -0.7603 0.7603 -0.6496 -0.3351 15.0604)" fill="#F4EB4B" width="0.507" height="0.508"/>
<rect x="2.686" y="6.929" transform="matrix(-0.6491 -0.7607 0.7607 -0.6491 -0.6153 14.0814)" fill="#F1CB14" width="0.508" height="0.508"/>
<rect x="2.324" y="6.504" transform="matrix(-0.6496 -0.7603 0.7603 -0.6496 -0.8859 13.1078)" fill="#231F20" width="0.507" height="0.508"/>
<rect x="4.553" y="8.274" transform="matrix(-0.648 -0.7616 0.7616 -0.648 1.4265 17.7144)" fill="#231F20" width="0.507" height="0.508"/>
<rect x="4.189" y="7.848" transform="matrix(-0.6494 -0.7605 0.7605 -0.6494 1.1684 16.7443)" fill="#F4EB4B" width="0.51" height="0.509"/>
<rect x="3.828" y="7.424" transform="matrix(-0.649 -0.7608 0.7608 -0.649 0.8891 15.7676)" fill="#F4EB4B" width="0.507" height="0.509"/>
<rect x="3.464" y="6.999" transform="matrix(-0.6496 -0.7603 0.7603 -0.6496 0.6184 14.7914)" fill="#F4EB4B" width="0.507" height="0.509"/>
<rect x="3.101" y="6.574" transform="matrix(-0.6491 -0.7607 0.7607 -0.6491 0.3384 13.8123)" fill="#F1CB14" width="0.508" height="0.509"/>
<rect x="2.738" y="6.149" transform="matrix(-0.6507 -0.7593 0.7593 -0.6507 0.0767 12.8429)" fill="#231F20" width="0.508" height="0.509"/>
<rect x="4.979" y="7.91" transform="matrix(-0.6497 -0.7602 0.7602 -0.6497 2.4263 17.4462)" fill="#231F20" width="0.508" height="0.507"/>
<rect x="4.615" y="7.486" transform="matrix(-0.6493 -0.7605 0.7605 -0.6493 2.1454 16.4678)" fill="#F4EB4B" width="0.509" height="0.507"/>
<rect x="4.252" y="7.061" transform="matrix(-0.6502 -0.7597 0.7597 -0.6502 1.8796 15.4952)" fill="#F4EB4B" width="0.508" height="0.508"/>
<rect x="3.889" y="6.636" transform="matrix(-0.6491 -0.7607 0.7607 -0.6491 1.5922 14.5132)" fill="#F4EB4B" width="0.508" height="0.508"/>
<rect x="3.526" y="6.21" transform="matrix(-0.6502 -0.7597 0.7597 -0.6502 1.3268 13.5395)" fill="#F1CB14" width="0.508" height="0.508"/>
<rect x="3.164" y="5.786" transform="matrix(-0.6491 -0.7607 0.7607 -0.6491 1.0423 12.5614)" fill="#231F20" width="0.508" height="0.508"/>
<rect x="5.394" y="7.555" transform="matrix(-0.6475 -0.7621 0.7621 -0.6475 3.3522 17.1699)" fill="#231F20" width="0.507" height="0.509"/>
<rect x="5.03" y="7.13" transform="matrix(-0.6494 -0.7605 0.7605 -0.6494 3.1007 16.1987)" fill="#F4EB4B" width="0.51" height="0.509"/>
<rect x="4.668" y="6.706" transform="matrix(-0.6487 -0.7611 0.7611 -0.6487 2.8173 15.2205)" fill="#F4EB4B" width="0.508" height="0.509"/>
<rect x="4.305" y="6.28" transform="matrix(-0.6507 -0.7593 0.7593 -0.6507 2.563 14.2483)" fill="#F4EB4B" width="0.508" height="0.509"/>
<rect x="3.942" y="5.855" transform="matrix(-0.6496 -0.7603 0.7603 -0.6496 2.276 13.2682)" fill="#F1CB14" width="0.507" height="0.509"/>
<rect x="3.579" y="5.431" transform="matrix(-0.6497 -0.7602 0.7602 -0.6497 2.0011 12.2932)" fill="#231F20" width="0.508" height="0.509"/>
<rect x="5.82" y="7.192" transform="matrix(-0.649 -0.7608 0.7608 -0.649 4.3515 16.8991)" fill="#231F20" width="0.507" height="0.508"/>
<rect x="5.455" y="6.767" transform="matrix(-0.6489 -0.7609 0.7609 -0.6489 4.0732 15.9211)" fill="#F4EB4B" width="0.51" height="0.508"/>
<rect x="5.094" y="6.342" transform="matrix(-0.6497 -0.7602 0.7602 -0.6497 3.8071 14.9477)" fill="#F4EB4B" width="0.508" height="0.509"/>
<rect x="4.73" y="5.917" transform="matrix(-0.6502 -0.7598 0.7598 -0.6502 3.536 13.9699)" fill="#F4EB4B" width="0.508" height="0.507"/>
<rect x="4.368" y="5.492" transform="matrix(-0.648 -0.7616 0.7616 -0.648 3.2398 12.989)" fill="#231F20" width="0.507" height="0.508"/>
<rect x="6.235" y="6.837" transform="matrix(-0.649 -0.7608 0.7608 -0.649 5.3049 16.6294)" fill="#231F20" width="0.507" height="0.507"/>
<rect x="5.87" y="6.413" transform="matrix(-0.6489 -0.7609 0.7609 -0.6489 5.0283 15.6523)" fill="#F4EB4B" width="0.51" height="0.507"/>
<rect x="5.51" y="5.988" transform="matrix(-0.6475 -0.7621 0.7621 -0.6475 4.7376 14.6755)" fill="#F4EB4B" width="0.507" height="0.508"/>
<rect x="5.145" y="5.563" transform="matrix(-0.6513 -0.7588 0.7588 -0.6513 4.5021 13.7018)" fill="#F4EB4B" width="0.508" height="0.508"/>
<rect x="4.783" y="5.138" transform="matrix(-0.649 -0.7608 0.7608 -0.649 4.2031 12.7222)" fill="#231F20" width="0.507" height="0.508"/>
<rect x="6.661" y="6.473" transform="matrix(-0.6475 -0.7621 0.7621 -0.6475 6.2635 16.3525)" fill="#231F20" width="0.507" height="0.509"/>
<rect x="6.296" y="6.048" transform="matrix(-0.6498 -0.7601 0.7601 -0.6498 6.0166 15.3768)" fill="#8F6A3A" width="0.509" height="0.508"/>
<rect x="5.935" y="5.624" transform="matrix(-0.6486 -0.7612 0.7612 -0.6486 5.7277 14.4014)" fill="#8F6A3A" width="0.507" height="0.509"/>
<rect x="5.57" y="5.198" transform="matrix(-0.6497 -0.7602 0.7602 -0.6497 5.463 13.4227)" fill="#773D1A" width="0.508" height="0.509"/>
<rect x="5.207" y="4.774" transform="matrix(-0.6497 -0.7602 0.7602 -0.6497 5.1876 12.4457)" fill="#231F20" width="0.508" height="0.508"/>
<rect x="6.71" y="5.695" transform="matrix(-0.6509 -0.7591 0.7591 -0.6509 6.984 15.1078)" fill="#231F20" width="0.51" height="0.507"/>
<rect x="2.489" y="15.189" transform="matrix(-0.6492 -0.7606 0.7606 -0.6492 -7.2215 27.5562)" fill="#231F20" width="0.508" height="0.509"/>
<rect x="2.126" y="14.764" transform="matrix(-0.6498 -0.7601 0.7601 -0.6498 -7.4883 26.5858)" fill="#231F20" width="0.509" height="0.508"/>
<rect x="3.268" y="15.26" transform="matrix(-0.6492 -0.7606 0.7606 -0.6492 -5.991 28.2633)" fill="#231F20" width="0.508" height="0.507"/>
<rect x="2.904" y="14.836" transform="matrix(-0.6492 -0.7606 0.7606 -0.6492 -6.2678 27.288)" fill="#F1CB14" width="0.508" height="0.507"/>
<rect x="2.542" y="14.411" transform="matrix(-0.6511 -0.759 0.759 -0.6511 -6.5139 26.3338)" fill="#F1CB14" width="0.507" height="0.507"/>
<rect x="4.058" y="15.32" transform="matrix(-0.6511 -0.759 0.759 -0.6511 -4.7022 28.9869)" fill="#231F20" width="0.507" height="0.508"/>
<rect x="3.694" y="14.895" transform="matrix(-0.6477 -0.7619 0.7619 -0.6477 -5.0363 27.9691)" fill="#F4EB4B" width="0.509" height="0.508"/>
<rect x="3.331" y="14.47" transform="matrix(-0.6492 -0.7606 0.7606 -0.6492 -5.2866 27.0101)" fill="#F4EB4B" width="0.508" height="0.507"/>
<rect x="2.969" y="14.046" transform="matrix(-0.6506 -0.7595 0.7595 -0.6506 -5.5413 26.0509)" fill="#F4EB4B" width="0.507" height="0.509"/>
<rect x="4.471" y="14.965" transform="matrix(-0.6509 -0.7592 0.7592 -0.6509 -3.7525 28.7128)" fill="#231F20" width="0.509" height="0.508"/>
<rect x="4.109" y="14.541" transform="matrix(-0.6487 -0.7611 0.7611 -0.6487 -4.0663 27.7127)" fill="#F4EB4B" width="0.508" height="0.508"/>
<rect x="3.746" y="14.115" transform="matrix(-0.6492 -0.7606 0.7606 -0.6492 -4.3321 26.7403)" fill="#F4EB4B" width="0.508" height="0.508"/>
<rect x="3.383" y="13.691" transform="matrix(-0.6487 -0.7611 0.7611 -0.6487 -4.6171 25.7592)" fill="#F4EB4B" width="0.508" height="0.508"/>
<rect x="4.898" y="14.603" transform="matrix(-0.6492 -0.7606 0.7606 -0.6492 -2.8039 28.4207)" fill="#F4EB4B" width="0.508" height="0.507"/>
<rect x="4.536" y="14.179" transform="matrix(-0.6494 -0.7604 0.7604 -0.6494 -3.0747 27.4458)" fill="#F4EB4B" width="0.506" height="0.505"/>
<rect x="4.171" y="13.753" transform="matrix(-0.6492 -0.7606 0.7606 -0.6492 -3.3547 26.4655)" fill="#F4EB4B" width="0.508" height="0.507"/>
<rect x="3.809" y="13.328" transform="matrix(-0.65 -0.7599 0.7599 -0.65 -3.6187 25.4984)" fill="#F4EB4B" width="0.506" height="0.508"/>
<rect x="5.312" y="14.248" transform="matrix(-0.6492 -0.7606 0.7606 -0.6492 -1.8498 28.1498)" fill="#783E1E" width="0.508" height="0.508"/>
<rect x="4.95" y="13.823" transform="matrix(-0.6522 -0.758 0.758 -0.6522 -2.0734 27.203)" fill="#F4EB4B" width="0.508" height="0.508"/>
<rect x="4.586" y="13.398" transform="matrix(-0.6471 -0.7624 0.7624 -0.6471 -2.4346 26.1769)" fill="#F4EB4B" width="0.509" height="0.508"/>
<rect x="4.224" y="12.973" transform="matrix(-0.6506 -0.7595 0.7595 -0.6506 -2.655 25.2325)" fill="#F4EB4B" width="0.507" height="0.509"/>
<rect x="5.727" y="13.893" transform="matrix(-0.6522 -0.758 0.758 -0.6522 -0.8428 27.9092)" fill="#8F612C" width="0.508" height="0.509"/>
<rect x="5.364" y="13.468" transform="matrix(-0.6492 -0.7606 0.7606 -0.6492 -1.1705 26.9035)" fill="#231F20" width="0.508" height="0.506"/>
<rect x="5.002" y="13.044" transform="matrix(-0.6479 -0.7617 0.7617 -0.6479 -1.4681 25.9161)" fill="#231F20" width="0.506" height="0.508"/>
<rect x="4.638" y="12.618" transform="matrix(-0.6492 -0.7606 0.7606 -0.6492 -1.7218 24.9501)" fill="#231F20" width="0.508" height="0.508"/>
<rect x="6.141" y="13.539" transform="matrix(-0.6503 -0.7597 0.7597 -0.6503 0.0774 27.6216)" fill="#231F20" width="0.509" height="0.508"/>
<rect x="5.63" y="15.458" transform="matrix(-0.6489 -0.7609 0.7609 -0.6489 -2.255 30.3832)" fill="#231F20" width="0.506" height="0.508"/>
<rect x="5.264" y="15.032" transform="matrix(-0.6492 -0.7606 0.7606 -0.6492 -2.5256 29.4075)" fill="#231F20" width="0.508" height="0.508"/>
<rect x="6.043" y="15.103" transform="matrix(-0.6492 -0.7606 0.7606 -0.6492 -1.295 30.1166)" fill="#783E1E" width="0.508" height="0.507"/>
<rect x="5.68" y="14.678" transform="matrix(-0.6503 -0.7597 0.7597 -0.6503 -1.5503 29.1507)" fill="#783E1E" width="0.509" height="0.509"/>
<rect x="6.458" y="14.748" transform="matrix(-0.6481 -0.7616 0.7616 -0.6481 -0.3634 29.837)" fill="#783E1E" width="0.508" height="0.508"/>
<rect x="6.094" y="14.324" transform="matrix(-0.6492 -0.7606 0.7606 -0.6492 -0.6177 28.8704)" fill="#8F612C" width="0.508" height="0.508"/>
<rect x="6.873" y="14.393" transform="matrix(-0.6533 -0.7571 0.7571 -0.6533 0.6934 29.6134)" fill="#231F20" width="0.508" height="0.509"/>
<rect x="6.509" y="13.969" transform="matrix(-0.6492 -0.7606 0.7606 -0.6492 0.3364 28.6014)" fill="#231F20" width="0.508" height="0.509"/>
<rect x="6.41" y="15.532" transform="matrix(-0.6503 -0.7597 0.7597 -0.6503 -0.9943 31.1146)" fill="#231F20" width="0.509" height="0.509"/>
<rect x="6.824" y="15.178" transform="matrix(-0.6503 -0.7597 0.7597 -0.6503 -0.0413 30.8453)" fill="#231F20" width="0.509" height="0.509"/>
<rect x="7.24" y="14.823" transform="matrix(-0.6511 -0.759 0.759 -0.6511 0.9291 30.5824)" fill="#231F20" width="0.507" height="0.51"/>
<rect x="6.349" y="5.27" transform="matrix(-0.6486 -0.7612 0.7612 -0.6486 6.681 14.1325)" fill="#231F20" width="0.507" height="0.508"/>
<rect x="5.986" y="4.845" transform="matrix(-0.6497 -0.7602 0.7602 -0.6497 6.4176 13.1546)" fill="#231F20" width="0.508" height="0.508"/>
</svg>
