<?xml version="1.0" encoding="utf-8"?>
<!-- Generator: Adobe Illustrator 16.0.0, SVG Export Plug-In . SVG Version: 6.00 Build 0)  -->
<!DOCTYPE svg PUBLIC "-//W3C//DTD SVG 1.1//EN" "http://www.w3.org/Graphics/SVG/1.1/DTD/svg11.dtd">
<svg version="1.1" id="Calque_1" xmlns="http://www.w3.org/2000/svg" xmlns:xlink="http://www.w3.org/1999/xlink" x="0px" y="0px"
	 width="40px" height="40px" viewBox="0 0 40 40" enable-background="new 0 0 40 40" xml:space="preserve">
<rect x="9.415" y="0.753" fill="#7454A2" width="1.477" height="1.483"/>
<rect x="15.907" y="2.346" fill="#806CAF" width="1.476" height="1.483"/>
<rect x="17.53" y="2.346" fill="#806CAF" width="1.477" height="1.483"/>
<rect x="11.038" y="2.346" fill="#7454A2" width="1.477" height="1.483"/>
<rect x="12.661" y="2.346" fill="#7454A2" width="1.477" height="1.483"/>
<rect x="14.284" y="2.346" fill="#806CAF" width="1.476" height="1.483"/>
<rect x="19.153" y="2.346" fill="#806CAF" width="1.476" height="1.483"/>
<rect x="20.776" y="2.346" fill="#806CAF" width="1.476" height="1.483"/>
<rect x="22.399" y="2.346" fill="#806CAF" width="1.477" height="1.483"/>
<rect x="24.022" y="2.346" fill="#806CAF" width="1.476" height="1.483"/>
<rect x="9.415" y="3.982" fill="#7454A2" width="1.477" height="1.483"/>
<rect x="14.284" y="3.982" fill="#7454A2" width="1.476" height="1.483"/>
<rect x="15.907" y="3.982" fill="#7454A2" width="1.476" height="1.483"/>
<rect x="17.53" y="3.982" fill="#7454A2" width="1.477" height="1.483"/>
<rect x="19.153" y="3.982" fill="#7454A2" width="1.476" height="1.483"/>
<rect x="20.776" y="3.982" fill="#7454A2" width="1.476" height="1.483"/>
<rect x="22.399" y="3.982" fill="#7454A2" width="1.477" height="1.483"/>
<rect x="24.022" y="3.982" fill="#7454A2" width="1.476" height="1.483"/>
<rect x="15.907" y="5.575" fill="#7454A2" width="1.476" height="1.483"/>
<rect x="17.53" y="5.575" fill="#7454A2" width="1.477" height="1.483"/>
<rect x="11.038" y="5.575" fill="#7454A2" width="1.477" height="1.483"/>
<rect x="12.661" y="5.575" fill="#7454A2" width="1.477" height="1.483"/>
<rect x="14.284" y="5.575" fill="#7454A2" width="1.476" height="1.483"/>
<rect x="19.153" y="5.575" fill="#7454A2" width="1.476" height="1.483"/>
<rect x="20.776" y="5.575" fill="#7454A2" width="1.476" height="1.483"/>
<rect x="22.399" y="5.575" fill="#7454A2" width="1.477" height="1.483"/>
<rect x="24.022" y="5.575" fill="#7454A2" width="1.476" height="1.483"/>
<rect x="9.415" y="7.209" fill="#7454A2" width="1.477" height="1.483"/>
<rect x="14.284" y="7.209" fill="#7454A2" width="1.476" height="1.483"/>
<rect x="15.907" y="7.209" fill="#7454A2" width="1.476" height="1.483"/>
<rect x="17.53" y="7.209" fill="#7454A2" width="1.477" height="1.483"/>
<rect x="19.153" y="7.209" fill="#7454A2" width="1.476" height="1.483"/>
<rect x="20.776" y="7.209" fill="#7454A2" width="1.476" height="1.483"/>
<rect x="22.399" y="7.209" fill="#7454A2" width="1.477" height="1.483"/>
<rect x="24.022" y="7.209" fill="#7454A2" width="1.476" height="1.483"/>
<rect x="15.907" y="8.802" fill="#806CAF" width="1.476" height="1.484"/>
<rect x="17.53" y="8.802" fill="#806CAF" width="1.477" height="1.484"/>
<rect x="11.038" y="8.802" fill="#806CAF" width="1.477" height="1.484"/>
<rect x="12.661" y="8.802" fill="#806CAF" width="1.477" height="1.484"/>
<rect x="14.284" y="8.802" fill="#806CAF" width="1.476" height="1.484"/>
<rect x="19.153" y="8.802" fill="#806CAF" width="1.476" height="1.484"/>
<rect x="20.776" y="8.802" fill="#806CAF" width="1.476" height="1.484"/>
<rect x="22.399" y="8.802" fill="#806CAF" width="1.477" height="1.484"/>
<rect x="24.022" y="8.802" fill="#806CAF" width="1.476" height="1.484"/>
<rect x="9.415" y="10.394" fill="#806CAF" width="1.477" height="1.483"/>
<rect x="11.038" y="10.394" fill="#806CAF" width="1.477" height="1.483"/>
<rect x="12.661" y="10.394" fill="#806CAF" width="1.477" height="1.483"/>
<rect x="14.284" y="10.394" fill="#806CAF" width="1.476" height="1.483"/>
<rect x="15.907" y="10.394" fill="#575751" width="1.476" height="1.483"/>
<rect x="17.53" y="10.394" fill="#575751" width="1.477" height="1.483"/>
<rect x="19.153" y="10.394" fill="#806CAF" width="1.476" height="1.483"/>
<rect x="20.776" y="10.394" fill="#806CAF" width="1.476" height="1.483"/>
<rect x="22.399" y="10.394" fill="#575751" width="1.477" height="1.483"/>
<rect x="24.022" y="10.394" fill="#575751" width="1.476" height="1.483"/>
<rect x="15.907" y="11.986" fill="#FFFFFF" width="1.476" height="1.484"/>
<rect x="17.53" y="11.986" fill="#FFFFFF" width="1.477" height="1.484"/>
<rect x="7.792" y="11.986" fill="#806CAF" width="1.477" height="1.484"/>
<rect x="9.415" y="11.986" fill="#806CAF" width="1.477" height="1.484"/>
<rect x="11.038" y="11.986" fill="#806CAF" width="1.477" height="1.484"/>
<rect x="12.661" y="11.986" fill="#806CAF" width="1.477" height="1.484"/>
<rect x="14.284" y="11.986" fill="#575751" width="1.476" height="1.484"/>
<rect x="19.153" y="11.986" fill="#555557" width="1.476" height="1.484"/>
<rect x="20.776" y="11.986" fill="#555557" width="1.476" height="1.484"/>
<rect x="22.399" y="11.986" fill="#FFFFFF" width="1.477" height="1.484"/>
<rect x="24.022" y="11.986" fill="#FFFFFF" width="1.476" height="1.484"/>
<rect x="7.792" y="13.621" fill="#806CAF" width="1.477" height="1.483"/>
<rect x="11.038" y="13.621" fill="#231F20" width="1.477" height="1.483"/>
<rect x="12.661" y="13.621" fill="#231F20" width="1.477" height="1.483"/>
<rect x="14.284" y="13.621" fill="#575751" width="1.476" height="1.483"/>
<rect x="15.907" y="13.621" fill="#231F20" width="1.476" height="1.483"/>
<rect x="17.53" y="13.621" fill="#231F20" width="1.477" height="1.483"/>
<rect x="19.153" y="13.621" fill="#555557" width="1.476" height="1.483"/>
<rect x="20.776" y="13.621" fill="#555557" width="1.476" height="1.483"/>
<rect x="22.399" y="13.621" fill="#231F20" width="1.477" height="1.483"/>
<rect x="24.022" y="13.621" fill="#231F20" width="1.476" height="1.483"/>
<rect x="15.907" y="15.213" fill="#FFFFFF" width="1.476" height="1.484"/>
<rect x="17.53" y="15.213" fill="#FFFFFF" width="1.477" height="1.484"/>
<rect x="11.038" y="15.213" fill="#231F20" width="1.477" height="1.484"/>
<rect x="12.661" y="15.213" fill="#231F20" width="1.477" height="1.484"/>
<rect x="14.284" y="15.213" fill="#575751" width="1.476" height="1.484"/>
<rect x="19.153" y="15.213" fill="#555557" width="1.476" height="1.484"/>
<rect x="20.776" y="15.213" fill="#555557" width="1.476" height="1.484"/>
<rect x="22.399" y="15.213" fill="#FFFFFF" width="1.477" height="1.484"/>
<rect x="24.022" y="15.213" fill="#FFFFFF" width="1.476" height="1.484"/>
<rect x="11.038" y="16.85" fill="#806CAF" width="1.477" height="1.483"/>
<rect x="12.661" y="16.85" fill="#806CAF" width="1.477" height="1.483"/>
<rect x="14.284" y="16.85" fill="#806CAF" width="1.476" height="1.483"/>
<rect x="15.907" y="16.85" fill="#575751" width="1.476" height="1.483"/>
<rect x="17.53" y="16.85" fill="#575751" width="1.477" height="1.483"/>
<rect x="19.153" y="16.85" fill="#806CAF" width="1.476" height="1.483"/>
<rect x="20.776" y="16.85" fill="#806CAF" width="1.476" height="1.483"/>
<rect x="22.399" y="16.85" fill="#575751" width="1.477" height="1.483"/>
<rect x="24.022" y="16.85" fill="#575751" width="1.476" height="1.483"/>
<rect x="15.907" y="18.442" fill="#806CAF" width="1.476" height="1.483"/>
<rect x="17.53" y="18.442" fill="#806CAF" width="1.477" height="1.483"/>
<rect x="11.038" y="18.442" fill="#806CAF" width="1.477" height="1.483"/>
<rect x="12.661" y="18.442" fill="#806CAF" width="1.477" height="1.483"/>
<rect x="14.284" y="18.442" fill="#806CAF" width="1.476" height="1.483"/>
<rect x="19.153" y="18.442" fill="#806CAF" width="1.476" height="1.483"/>
<rect x="20.776" y="18.442" fill="#806CAF" width="1.476" height="1.483"/>
<rect x="22.399" y="18.442" fill="#806CAF" width="1.477" height="1.483"/>
<rect x="24.022" y="18.442" fill="#806CAF" width="1.476" height="1.483"/>
<rect x="11.038" y="20.076" fill="#806CAF" width="1.477" height="1.483"/>
<rect x="12.661" y="20.076" fill="#FFFFFF" width="1.477" height="1.483"/>
<rect x="14.284" y="20.076" fill="#806CAF" width="1.476" height="1.483"/>
<rect x="15.907" y="20.076" fill="#FFFFFF" width="1.476" height="1.483"/>
<rect x="17.53" y="20.076" fill="#806CAF" width="1.477" height="1.483"/>
<rect x="19.153" y="20.076" fill="#FFFFFF" width="1.476" height="1.483"/>
<rect x="20.776" y="20.076" fill="#FFFFFF" width="1.476" height="1.483"/>
<rect x="22.399" y="20.076" fill="#806CAF" width="1.477" height="1.483"/>
<rect x="24.022" y="20.076" fill="#FFFFFF" width="1.476" height="1.483"/>
<rect x="15.907" y="21.669" fill="#FFFFFF" width="1.476" height="1.483"/>
<rect x="17.53" y="21.669" fill="#FFFFFF" width="1.477" height="1.483"/>
<rect x="11.038" y="21.669" fill="#231F20" width="1.477" height="1.483"/>
<rect x="12.661" y="21.669" fill="#806CAF" width="1.477" height="1.483"/>
<rect x="14.284" y="21.669" fill="#FFFFFF" width="1.476" height="1.483"/>
<rect x="19.153" y="21.669" fill="#FFFFFF" width="1.476" height="1.483"/>
<rect x="20.776" y="21.669" fill="#FFFFFF" width="1.476" height="1.483"/>
<rect x="22.399" y="21.669" fill="#FFFFFF" width="1.477" height="1.483"/>
<rect x="24.022" y="21.669" fill="#FFFFFF" width="1.476" height="1.483"/>
<rect x="11.038" y="23.305" fill="#231F20" width="1.477" height="1.483"/>
<rect x="12.661" y="23.305" fill="#231F20" width="1.477" height="1.483"/>
<rect x="14.284" y="23.305" fill="#806CAF" width="1.476" height="1.483"/>
<rect x="15.907" y="23.305" fill="#806CAF" width="1.476" height="1.483"/>
<rect x="17.53" y="23.305" fill="#806CAF" width="1.477" height="1.483"/>
<rect x="19.153" y="23.305" fill="#806CAF" width="1.476" height="1.483"/>
<rect x="20.776" y="23.305" fill="#806CAF" width="1.476" height="1.483"/>
<rect x="22.399" y="23.305" fill="#806CAF" width="1.477" height="1.483"/>
<rect x="24.022" y="23.305" fill="#806CAF" width="1.476" height="1.483"/>
<rect x="15.907" y="24.897" fill="#231F20" width="1.476" height="1.483"/>
<rect x="17.53" y="24.897" fill="#231F20" width="1.477" height="1.483"/>
<rect x="11.038" y="24.897" fill="#8268AD" width="1.477" height="1.483"/>
<rect x="12.661" y="24.897" fill="#231F20" width="1.477" height="1.483"/>
<rect x="14.284" y="24.897" fill="#231F20" width="1.476" height="1.483"/>
<rect x="19.153" y="24.897" fill="#231F20" width="1.476" height="1.483"/>
<rect x="20.776" y="24.897" fill="#231F20" width="1.476" height="1.483"/>
<rect x="22.399" y="24.897" fill="#231F20" width="1.477" height="1.483"/>
<rect x="24.022" y="24.897" fill="#231F20" width="1.476" height="1.483"/>
<rect x="9.415" y="26.531" fill="#8268AD" width="1.477" height="1.483"/>
<rect x="11.038" y="26.531" fill="#8268AD" width="1.477" height="1.483"/>
<rect x="12.661" y="26.531" fill="#8268AD" width="1.477" height="1.483"/>
<rect x="14.284" y="26.531" fill="#231F20" width="1.476" height="1.483"/>
<rect x="15.907" y="26.531" fill="#231F20" width="1.476" height="1.483"/>
<rect x="17.53" y="26.531" fill="#231F20" width="1.477" height="1.483"/>
<rect x="19.153" y="26.531" fill="#231F20" width="1.476" height="1.483"/>
<rect x="20.776" y="26.531" fill="#231F20" width="1.476" height="1.483"/>
<rect x="22.399" y="26.531" fill="#231F20" width="1.477" height="1.483"/>
<rect x="24.022" y="26.531" fill="#231F20" width="1.476" height="1.483"/>
<rect x="15.907" y="28.124" fill="#231F20" width="1.476" height="1.483"/>
<rect x="17.53" y="28.124" fill="#231F20" width="1.477" height="1.483"/>
<rect x="9.415" y="28.124" fill="#8268AD" width="1.477" height="1.483"/>
<rect x="11.038" y="28.124" fill="#8268AD" width="1.477" height="1.483"/>
<rect x="12.661" y="28.124" fill="#231F20" width="1.477" height="1.483"/>
<rect x="14.284" y="28.124" fill="#231F20" width="1.476" height="1.483"/>
<rect x="19.153" y="28.124" fill="#56555B" width="1.476" height="1.483"/>
<rect x="20.776" y="28.124" fill="#56555B" width="1.476" height="1.483"/>
<rect x="22.399" y="28.124" fill="#231F20" width="1.477" height="1.483"/>
<rect x="24.022" y="28.124" fill="#231F20" width="1.476" height="1.483"/>
<rect x="30.499" y="0.753" fill="#7454A2" width="1.478" height="1.483"/>
<rect x="25.631" y="2.346" fill="#806CAF" width="1.476" height="1.483"/>
<rect x="27.253" y="2.346" fill="#7454A2" width="1.478" height="1.483"/>
<rect x="28.877" y="2.346" fill="#7454A2" width="1.476" height="1.483"/>
<rect x="25.631" y="3.982" fill="#7454A2" width="1.476" height="1.483"/>
<rect x="30.499" y="3.982" fill="#7454A2" width="1.478" height="1.483"/>
<rect x="25.631" y="5.575" fill="#7454A2" width="1.476" height="1.483"/>
<rect x="27.253" y="5.575" fill="#7454A2" width="1.478" height="1.483"/>
<rect x="28.877" y="5.575" fill="#7454A2" width="1.476" height="1.483"/>
<rect x="25.631" y="7.209" fill="#7454A2" width="1.476" height="1.483"/>
<rect x="32.123" y="7.209" fill="#7454A2" width="1.476" height="1.483"/>
<rect x="25.631" y="8.802" fill="#806CAF" width="1.476" height="1.484"/>
<rect x="27.253" y="8.802" fill="#806CAF" width="1.478" height="1.484"/>
<rect x="28.877" y="8.802" fill="#806CAF" width="1.476" height="1.484"/>
<rect x="30.499" y="8.802" fill="#806CAF" width="1.478" height="1.484"/>
<rect x="25.631" y="10.394" fill="#806CAF" width="1.476" height="1.483"/>
<rect x="27.253" y="10.394" fill="#806CAF" width="1.478" height="1.483"/>
<rect x="28.877" y="10.394" fill="#806CAF" width="1.476" height="1.483"/>
<rect x="30.499" y="10.394" fill="#806CAF" width="1.478" height="1.483"/>
<rect x="25.631" y="11.986" fill="#575751" width="1.476" height="1.484"/>
<rect x="27.253" y="11.986" fill="#806CAF" width="1.478" height="1.484"/>
<rect x="28.877" y="11.986" fill="#806CAF" width="1.476" height="1.484"/>
<rect x="30.499" y="11.986" fill="#806CAF" width="1.478" height="1.484"/>
<rect x="32.123" y="11.986" fill="#806CAF" width="1.476" height="1.484"/>
<rect x="25.631" y="13.621" fill="#575751" width="1.476" height="1.483"/>
<rect x="27.253" y="13.621" fill="#231F20" width="1.478" height="1.483"/>
<rect x="28.877" y="13.621" fill="#231F20" width="1.476" height="1.483"/>
<rect x="32.123" y="13.621" fill="#806CAF" width="1.476" height="1.483"/>
<rect x="25.631" y="15.213" fill="#575751" width="1.476" height="1.484"/>
<rect x="27.253" y="15.213" fill="#231F20" width="1.478" height="1.484"/>
<rect x="28.877" y="15.213" fill="#231F20" width="1.476" height="1.484"/>
<rect x="25.631" y="16.85" fill="#806CAF" width="1.476" height="1.483"/>
<rect x="27.253" y="16.85" fill="#806CAF" width="1.478" height="1.483"/>
<rect x="28.877" y="16.85" fill="#806CAF" width="1.476" height="1.483"/>
<rect x="25.631" y="18.442" fill="#806CAF" width="1.476" height="1.483"/>
<rect x="27.253" y="18.442" fill="#806CAF" width="1.478" height="1.483"/>
<rect x="28.877" y="18.442" fill="#806CAF" width="1.476" height="1.483"/>
<rect x="25.631" y="20.076" fill="#806CAF" width="1.476" height="1.483"/>
<rect x="27.253" y="20.076" fill="#FFFFFF" width="1.478" height="1.483"/>
<rect x="28.877" y="20.076" fill="#806CAF" width="1.476" height="1.483"/>
<rect x="25.631" y="21.669" fill="#FFFFFF" width="1.476" height="1.483"/>
<rect x="27.253" y="21.669" fill="#806CAF" width="1.478" height="1.483"/>
<rect x="28.877" y="21.669" fill="#231F20" width="1.476" height="1.483"/>
<rect x="25.631" y="23.305" fill="#806CAF" width="1.476" height="1.483"/>
<rect x="27.253" y="23.305" fill="#231F20" width="1.478" height="1.483"/>
<rect x="28.877" y="23.305" fill="#231F20" width="1.476" height="1.483"/>
<rect x="25.631" y="24.897" fill="#231F20" width="1.476" height="1.483"/>
<rect x="27.253" y="24.897" fill="#231F20" width="1.478" height="1.483"/>
<rect x="28.877" y="24.897" fill="#8268AD" width="1.476" height="1.483"/>
<rect x="25.631" y="26.531" fill="#231F20" width="1.476" height="1.483"/>
<rect x="27.253" y="26.509" fill="#8168AD" width="1.478" height="1.483"/>
<rect x="28.877" y="26.509" fill="#8168AD" width="1.476" height="1.483"/>
<rect x="30.499" y="26.509" fill="#8168AD" width="1.478" height="1.483"/>
<rect x="25.631" y="28.124" fill="#231F20" width="1.476" height="1.483"/>
<rect x="27.253" y="28.124" fill="#231F20" width="1.478" height="1.483"/>
<rect x="28.877" y="28.102" fill="#8168AD" width="1.476" height="1.483"/>
<rect x="30.499" y="28.102" fill="#8168AD" width="1.478" height="1.483"/>
<rect x="9.415" y="29.714" fill="#8268AD" width="1.477" height="1.484"/>
<rect x="11.038" y="29.714" fill="#8268AD" width="1.477" height="1.484"/>
<rect x="12.661" y="29.714" fill="#231F20" width="1.477" height="1.484"/>
<rect x="14.284" y="29.714" fill="#231F20" width="1.476" height="1.484"/>
<rect x="15.907" y="29.714" fill="#231F20" width="1.476" height="1.484"/>
<rect x="17.53" y="29.714" fill="#231F20" width="1.477" height="1.484"/>
<rect x="19.153" y="29.714" fill="#56555B" width="1.476" height="1.484"/>
<rect x="20.776" y="29.714" fill="#56555B" width="1.476" height="1.484"/>
<rect x="22.399" y="29.714" fill="#231F20" width="1.477" height="1.484"/>
<rect x="24.022" y="29.714" fill="#231F20" width="1.476" height="1.484"/>
<rect x="15.907" y="31.308" fill="#231F20" width="1.476" height="1.483"/>
<rect x="17.53" y="31.308" fill="#231F20" width="1.477" height="1.483"/>
<rect x="7.792" y="31.308" fill="#231F20" width="1.477" height="1.483"/>
<rect x="9.415" y="31.308" fill="#8268AD" width="1.477" height="1.483"/>
<rect x="11.038" y="31.308" fill="#8268AD" width="1.477" height="1.483"/>
<rect x="12.661" y="31.308" fill="#231F20" width="1.477" height="1.483"/>
<rect x="14.284" y="31.308" fill="#231F20" width="1.476" height="1.483"/>
<rect x="19.153" y="31.308" fill="#231F20" width="1.476" height="1.483"/>
<rect x="20.776" y="31.308" fill="#231F20" width="1.476" height="1.483"/>
<rect x="22.399" y="31.308" fill="#231F20" width="1.477" height="1.483"/>
<rect x="24.022" y="31.308" fill="#231F20" width="1.476" height="1.483"/>
<rect x="7.792" y="32.942" fill="#231F20" width="1.477" height="1.484"/>
<rect x="9.415" y="32.942" fill="#8268AD" width="1.477" height="1.484"/>
<rect x="11.038" y="32.942" fill="#8268AD" width="1.477" height="1.484"/>
<rect x="12.661" y="32.942" fill="#231F20" width="1.477" height="1.484"/>
<rect x="14.284" y="32.942" fill="#231F20" width="1.476" height="1.484"/>
<rect x="15.907" y="32.942" fill="#231F20" width="1.476" height="1.484"/>
<rect x="17.53" y="32.942" fill="#231F20" width="1.477" height="1.484"/>
<rect x="19.153" y="32.942" fill="#231F20" width="1.476" height="1.484"/>
<rect x="20.776" y="32.942" fill="#231F20" width="1.476" height="1.484"/>
<rect x="22.399" y="32.942" fill="#231F20" width="1.477" height="1.484"/>
<rect x="24.022" y="32.942" fill="#231F20" width="1.476" height="1.484"/>
<rect x="15.907" y="34.536" fill="#231F20" width="1.476" height="1.483"/>
<rect x="17.53" y="34.536" fill="#231F20" width="1.477" height="1.483"/>
<rect x="7.792" y="34.536" fill="#231F20" width="1.477" height="1.483"/>
<rect x="9.415" y="34.536" fill="#231F20" width="1.477" height="1.483"/>
<rect x="11.038" y="34.536" fill="#231F20" width="1.477" height="1.483"/>
<rect x="14.284" y="34.536" fill="#231F20" width="1.476" height="1.483"/>
<rect x="22.399" y="34.536" fill="#231F20" width="1.477" height="1.483"/>
<rect x="24.022" y="34.536" fill="#231F20" width="1.476" height="1.483"/>
<rect x="14.284" y="36.17" fill="#231F20" width="1.476" height="1.483"/>
<rect x="15.907" y="36.17" fill="#231F20" width="1.476" height="1.483"/>
<rect x="17.53" y="36.17" fill="#231F20" width="1.477" height="1.483"/>
<rect x="22.399" y="36.17" fill="#231F20" width="1.477" height="1.483"/>
<rect x="24.022" y="36.17" fill="#231F20" width="1.476" height="1.483"/>
<rect x="15.907" y="37.763" fill="#231F20" width="1.476" height="1.483"/>
<rect x="17.53" y="37.763" fill="#231F20" width="1.477" height="1.483"/>
<rect x="12.661" y="37.763" fill="#231F20" width="1.477" height="1.483"/>
<rect x="14.284" y="37.763" fill="#231F20" width="1.476" height="1.483"/>
<rect x="22.399" y="37.763" fill="#231F20" width="1.477" height="1.483"/>
<rect x="24.022" y="37.763" fill="#231F20" width="1.476" height="1.483"/>
<rect x="25.631" y="29.714" fill="#231F20" width="1.476" height="1.484"/>
<rect x="27.253" y="29.714" fill="#231F20" width="1.478" height="1.484"/>
<rect x="28.877" y="29.692" fill="#8168AD" width="1.476" height="1.484"/>
<rect x="30.499" y="29.692" fill="#8168AD" width="1.478" height="1.484"/>
<rect x="25.631" y="31.308" fill="#231F20" width="1.476" height="1.483"/>
<rect x="27.253" y="31.308" fill="#231F20" width="1.478" height="1.483"/>
<rect x="28.877" y="31.285" fill="#8168AD" width="1.476" height="1.484"/>
<rect x="30.499" y="31.285" fill="#8168AD" width="1.478" height="1.484"/>
<rect x="32.123" y="31.308" fill="#231F20" width="1.476" height="1.483"/>
<rect x="25.631" y="32.942" fill="#231F20" width="1.476" height="1.484"/>
<rect x="27.253" y="32.942" fill="#231F20" width="1.478" height="1.484"/>
<rect x="28.877" y="32.92" fill="#8168AD" width="1.476" height="1.484"/>
<rect x="30.499" y="32.92" fill="#8168AD" width="1.478" height="1.484"/>
<rect x="32.123" y="32.942" fill="#231F20" width="1.476" height="1.484"/>
<rect x="25.631" y="34.536" fill="#231F20" width="1.476" height="1.483"/>
<rect x="28.877" y="34.536" fill="#231F20" width="1.476" height="1.483"/>
<rect x="30.499" y="34.536" fill="#231F20" width="1.478" height="1.483"/>
<rect x="32.123" y="34.536" fill="#231F20" width="1.476" height="1.483"/>
<rect x="25.631" y="36.17" fill="#231F20" width="1.476" height="1.483"/>
<rect x="25.631" y="37.763" fill="#231F20" width="1.476" height="1.483"/>
<rect x="27.253" y="37.763" fill="#231F20" width="1.478" height="1.483"/>
</svg>
