<?xml version="1.0" encoding="utf-8"?>
<!-- Generator: Adobe Illustrator 16.0.0, SVG Export Plug-In . SVG Version: 6.00 Build 0)  -->
<!DOCTYPE svg PUBLIC "-//W3C//DTD SVG 1.1//EN" "http://www.w3.org/Graphics/SVG/1.1/DTD/svg11.dtd">
<svg version="1.1" id="Calque_1" xmlns="http://www.w3.org/2000/svg" xmlns:xlink="http://www.w3.org/1999/xlink" x="0px" y="0px"
	 width="50px" height="50px" viewBox="0 0 50 50" enable-background="new 0 0 50 50" xml:space="preserve">
<rect x="13.201" y="4.968" fill="#7554A3" width="1.544" height="1.544"/>
<rect x="19.991" y="6.625" fill="#826BB0" width="1.544" height="1.544"/>
<rect x="21.688" y="6.625" fill="#826BB0" width="1.544" height="1.544"/>
<rect x="14.898" y="6.625" fill="#7554A3" width="1.544" height="1.544"/>
<rect x="16.596" y="6.625" fill="#7554A3" width="1.544" height="1.544"/>
<rect x="18.293" y="6.625" fill="#826BB0" width="1.544" height="1.544"/>
<rect x="23.386" y="6.625" fill="#826BB0" width="1.544" height="1.544"/>
<rect x="25.083" y="6.625" fill="#826BB0" width="1.544" height="1.544"/>
<rect x="26.781" y="6.625" fill="#826BB0" width="1.544" height="1.544"/>
<rect x="28.479" y="6.625" fill="#826BB0" width="1.545" height="1.544"/>
<rect x="13.201" y="8.328" fill="#7554A3" width="1.544" height="1.544"/>
<rect x="18.293" y="8.328" fill="#7554A3" width="1.544" height="1.544"/>
<rect x="19.991" y="8.328" fill="#7554A3" width="1.544" height="1.544"/>
<rect x="21.688" y="8.328" fill="#7554A3" width="1.544" height="1.544"/>
<rect x="23.386" y="8.328" fill="#7554A3" width="1.544" height="1.544"/>
<rect x="25.083" y="8.328" fill="#7554A3" width="1.544" height="1.544"/>
<rect x="26.781" y="8.328" fill="#7554A3" width="1.544" height="1.544"/>
<rect x="28.479" y="8.328" fill="#7554A3" width="1.545" height="1.544"/>
<rect x="19.991" y="9.986" fill="#7554A3" width="1.544" height="1.544"/>
<rect x="21.688" y="9.986" fill="#7554A3" width="1.544" height="1.544"/>
<rect x="14.898" y="9.986" fill="#7554A3" width="1.544" height="1.544"/>
<rect x="16.596" y="9.986" fill="#7554A3" width="1.544" height="1.544"/>
<rect x="18.293" y="9.986" fill="#7554A3" width="1.544" height="1.544"/>
<rect x="23.386" y="9.986" fill="#7554A3" width="1.544" height="1.544"/>
<rect x="25.083" y="9.986" fill="#7554A3" width="1.544" height="1.544"/>
<rect x="26.781" y="9.986" fill="#7554A3" width="1.544" height="1.544"/>
<rect x="28.479" y="9.986" fill="#7554A3" width="1.545" height="1.544"/>
<rect x="13.201" y="11.687" fill="#7554A3" width="1.544" height="1.545"/>
<rect x="18.293" y="11.687" fill="#7554A3" width="1.544" height="1.545"/>
<rect x="19.991" y="11.687" fill="#7554A3" width="1.544" height="1.545"/>
<rect x="21.688" y="11.687" fill="#7554A3" width="1.544" height="1.545"/>
<rect x="23.386" y="11.687" fill="#7554A3" width="1.544" height="1.545"/>
<rect x="25.083" y="11.687" fill="#7554A3" width="1.544" height="1.545"/>
<rect x="26.781" y="11.687" fill="#7554A3" width="1.544" height="1.545"/>
<rect x="28.479" y="11.687" fill="#7554A3" width="1.545" height="1.545"/>
<rect x="19.991" y="13.345" fill="#826BB0" width="1.544" height="1.544"/>
<rect x="21.688" y="13.345" fill="#826BB0" width="1.544" height="1.544"/>
<rect x="14.898" y="13.345" fill="#826BB0" width="1.544" height="1.544"/>
<rect x="16.596" y="13.345" fill="#826BB0" width="1.544" height="1.544"/>
<rect x="18.293" y="13.345" fill="#826BB0" width="1.544" height="1.544"/>
<rect x="23.386" y="13.345" fill="#826BB0" width="1.544" height="1.544"/>
<rect x="25.083" y="13.345" fill="#826BB0" width="1.544" height="1.544"/>
<rect x="26.781" y="13.345" fill="#826BB0" width="1.544" height="1.544"/>
<rect x="28.479" y="13.345" fill="#826BB0" width="1.545" height="1.544"/>
<rect x="13.201" y="15.002" fill="#826BB0" width="1.544" height="1.544"/>
<rect x="14.898" y="15.002" fill="#826BB0" width="1.544" height="1.544"/>
<rect x="16.596" y="15.002" fill="#826BB0" width="1.544" height="1.544"/>
<rect x="18.293" y="15.002" fill="#826BB0" width="1.544" height="1.544"/>
<rect x="19.991" y="15.002" fill="#565751" width="1.544" height="1.544"/>
<rect x="21.688" y="15.002" fill="#565751" width="1.544" height="1.544"/>
<rect x="23.386" y="15.002" fill="#826BB0" width="1.544" height="1.544"/>
<rect x="25.083" y="15.002" fill="#826BB0" width="1.544" height="1.544"/>
<rect x="26.781" y="15.002" fill="#565751" width="1.544" height="1.544"/>
<rect x="28.479" y="15.002" fill="#565751" width="1.545" height="1.544"/>
<rect x="19.991" y="16.66" fill="#FFFFFF" stroke="#000000" stroke-width="0.1" stroke-miterlimit="10" width="1.544" height="1.544"/>
<rect x="21.688" y="16.66" fill="#FFFFFF" stroke="#000000" stroke-width="0.1" stroke-miterlimit="10" width="1.544" height="1.544"/>
<rect x="11.503" y="16.66" fill="#826BB0" width="1.544" height="1.544"/>
<rect x="13.201" y="16.66" fill="#826BB0" width="1.544" height="1.544"/>
<rect x="14.898" y="16.66" fill="#826BB0" width="1.544" height="1.544"/>
<rect x="16.596" y="16.66" fill="#826BB0" width="1.544" height="1.544"/>
<rect x="18.293" y="16.66" fill="#565751" width="1.544" height="1.544"/>
<rect x="23.386" y="16.66" fill="#555657" width="1.544" height="1.544"/>
<rect x="25.083" y="16.66" fill="#555657" width="1.544" height="1.544"/>
<rect x="26.781" y="16.66" fill="#FFFFFF" stroke="#000000" stroke-width="0.1" stroke-miterlimit="10" width="1.544" height="1.544"/>
<rect x="28.479" y="16.66" fill="#FFFFFF" stroke="#000000" stroke-width="0.1" stroke-miterlimit="10" width="1.545" height="1.544"/>
<rect x="11.503" y="18.361" fill="#826BB0" width="1.544" height="1.544"/>
<rect x="14.898" y="18.361" width="1.544" height="1.544"/>
<rect x="16.596" y="18.361" width="1.544" height="1.544"/>
<rect x="18.293" y="18.361" fill="#565751" width="1.544" height="1.544"/>
<rect x="19.991" y="18.361" width="1.544" height="1.544"/>
<rect x="21.688" y="18.361" width="1.544" height="1.544"/>
<rect x="23.386" y="18.361" fill="#555657" width="1.544" height="1.544"/>
<rect x="25.083" y="18.361" fill="#555657" width="1.544" height="1.544"/>
<rect x="26.781" y="18.361" width="1.544" height="1.544"/>
<rect x="28.479" y="18.361" width="1.545" height="1.544"/>
<rect x="19.991" y="20.019" fill="#FFFFFF" stroke="#000000" stroke-width="0.1" stroke-miterlimit="10" width="1.544" height="1.545"/>
<rect x="21.688" y="20.019" fill="#FFFFFF" stroke="#000000" stroke-width="0.1" stroke-miterlimit="10" width="1.544" height="1.545"/>
<rect x="14.898" y="20.019" width="1.544" height="1.545"/>
<rect x="16.596" y="20.019" width="1.544" height="1.545"/>
<rect x="18.293" y="20.019" fill="#565751" width="1.544" height="1.545"/>
<rect x="23.386" y="20.019" fill="#555657" width="1.544" height="1.545"/>
<rect x="25.083" y="20.019" fill="#555657" width="1.544" height="1.545"/>
<rect x="26.781" y="20.019" fill="#FFFFFF" stroke="#000000" stroke-width="0.1" stroke-miterlimit="10" width="1.544" height="1.545"/>
<rect x="28.479" y="20.019" fill="#FFFFFF" stroke="#000000" stroke-width="0.1" stroke-miterlimit="10" width="1.545" height="1.545"/>
<rect x="14.898" y="21.722" fill="#826BB0" width="1.544" height="1.544"/>
<rect x="16.596" y="21.722" fill="#826BB0" width="1.544" height="1.544"/>
<rect x="18.293" y="21.722" fill="#826BB0" width="1.544" height="1.544"/>
<rect x="19.991" y="21.722" fill="#565751" width="1.544" height="1.544"/>
<rect x="21.688" y="21.722" fill="#565751" width="1.544" height="1.544"/>
<rect x="23.386" y="21.722" fill="#826BB0" width="1.544" height="1.544"/>
<rect x="25.083" y="21.722" fill="#826BB0" width="1.544" height="1.544"/>
<rect x="26.781" y="21.722" fill="#565751" width="1.544" height="1.544"/>
<rect x="28.479" y="21.722" fill="#565751" width="1.545" height="1.544"/>
<rect x="19.991" y="23.379" fill="#826BB0" width="1.544" height="1.545"/>
<rect x="21.688" y="23.379" fill="#826BB0" width="1.544" height="1.545"/>
<rect x="14.898" y="23.379" fill="#826BB0" width="1.544" height="1.545"/>
<rect x="16.596" y="23.379" fill="#826BB0" width="1.544" height="1.545"/>
<rect x="18.293" y="23.379" fill="#826BB0" width="1.544" height="1.545"/>
<rect x="23.386" y="23.379" fill="#826BB0" width="1.544" height="1.545"/>
<rect x="25.083" y="23.379" fill="#826BB0" width="1.544" height="1.545"/>
<rect x="26.781" y="23.379" fill="#826BB0" width="1.544" height="1.545"/>
<rect x="28.479" y="23.379" fill="#826BB0" width="1.545" height="1.545"/>
<rect x="14.898" y="25.08" fill="#826BB0" width="1.544" height="1.545"/>
<rect x="16.596" y="25.08" fill="#FFFFFF" stroke="#000000" stroke-width="0.1" stroke-miterlimit="10" width="1.544" height="1.545"/>
<rect x="18.293" y="25.08" fill="#826BB0" width="1.544" height="1.545"/>
<rect x="19.991" y="25.08" fill="#FFFFFF" stroke="#000000" stroke-width="0.1" stroke-miterlimit="10" width="1.544" height="1.545"/>
<rect x="21.688" y="25.08" fill="#826BB0" width="1.544" height="1.545"/>
<rect x="23.386" y="25.08" fill="#FFFFFF" stroke="#000000" stroke-width="0.1" stroke-miterlimit="10" width="1.544" height="1.545"/>
<rect x="25.083" y="25.08" fill="#FFFFFF" stroke="#000000" stroke-width="0.1" stroke-miterlimit="10" width="1.544" height="1.545"/>
<rect x="26.781" y="25.08" fill="#826BB0" width="1.544" height="1.545"/>
<rect x="28.479" y="25.08" fill="#FFFFFF" stroke="#000000" stroke-width="0.1" stroke-miterlimit="10" width="1.545" height="1.545"/>
<rect x="19.991" y="26.738" fill="#FFFFFF" stroke="#000000" stroke-width="0.1" stroke-miterlimit="10" width="1.544" height="1.544"/>
<rect x="21.688" y="26.738" fill="#FFFFFF" stroke="#000000" stroke-width="0.1" stroke-miterlimit="10" width="1.544" height="1.544"/>
<rect x="14.898" y="26.738" width="1.544" height="1.544"/>
<rect x="16.596" y="26.738" fill="#826BB0" width="1.544" height="1.544"/>
<rect x="18.293" y="26.738" fill="#FFFFFF" stroke="#000000" stroke-width="0.1" stroke-miterlimit="10" width="1.544" height="1.544"/>
<rect x="23.386" y="26.738" fill="#FFFFFF" stroke="#000000" stroke-width="0.1" stroke-miterlimit="10" width="1.544" height="1.544"/>
<rect x="25.083" y="26.738" fill="#FFFFFF" stroke="#000000" stroke-width="0.1" stroke-miterlimit="10" width="1.544" height="1.544"/>
<rect x="26.781" y="26.738" fill="#FFFFFF" stroke="#000000" stroke-width="0.1" stroke-miterlimit="10" width="1.544" height="1.544"/>
<rect x="28.479" y="26.738" fill="#FFFFFF" stroke="#000000" stroke-width="0.1" stroke-miterlimit="10" width="1.545" height="1.544"/>
<rect x="14.898" y="28.44" width="1.544" height="1.544"/>
<rect x="16.596" y="28.44" width="1.544" height="1.544"/>
<rect x="18.293" y="28.44" fill="#826BB0" width="1.544" height="1.544"/>
<rect x="19.991" y="28.44" fill="#826BB0" width="1.544" height="1.544"/>
<rect x="21.688" y="28.44" fill="#826BB0" width="1.544" height="1.544"/>
<rect x="23.386" y="28.44" fill="#826BB0" width="1.544" height="1.544"/>
<rect x="25.083" y="28.44" fill="#826BB0" width="1.544" height="1.544"/>
<rect x="26.781" y="28.44" fill="#826BB0" width="1.544" height="1.544"/>
<rect x="28.479" y="28.44" fill="#826BB0" width="1.545" height="1.544"/>
<rect x="19.991" y="30.098" width="1.544" height="1.545"/>
<rect x="21.688" y="30.098" width="1.544" height="1.545"/>
<rect x="14.898" y="30.098" fill="#8368AE" width="1.544" height="1.545"/>
<rect x="16.596" y="30.098" width="1.544" height="1.545"/>
<rect x="18.293" y="30.098" width="1.544" height="1.545"/>
<rect x="23.386" y="30.098" width="1.544" height="1.545"/>
<rect x="25.083" y="30.098" width="1.544" height="1.545"/>
<rect x="26.781" y="30.098" width="1.544" height="1.545"/>
<rect x="28.479" y="30.098" width="1.545" height="1.545"/>
<rect x="13.201" y="31.799" fill="#8368AE" width="1.544" height="1.544"/>
<rect x="14.898" y="31.799" fill="#8368AE" width="1.544" height="1.544"/>
<rect x="16.596" y="31.799" fill="#8368AE" width="1.544" height="1.544"/>
<rect x="18.293" y="31.799" width="1.544" height="1.544"/>
<rect x="19.991" y="31.799" width="1.544" height="1.544"/>
<rect x="21.688" y="31.799" width="1.544" height="1.544"/>
<rect x="23.386" y="31.799" width="1.544" height="1.544"/>
<rect x="25.083" y="31.799" width="1.544" height="1.544"/>
<rect x="26.781" y="31.799" width="1.544" height="1.544"/>
<rect x="28.479" y="31.799" width="1.545" height="1.544"/>
<rect x="19.991" y="33.457" width="1.544" height="1.544"/>
<rect x="21.688" y="33.457" width="1.544" height="1.544"/>
<rect x="13.201" y="33.457" fill="#8368AE" width="1.544" height="1.544"/>
<rect x="14.898" y="33.457" fill="#8368AE" width="1.544" height="1.544"/>
<rect x="16.596" y="33.457" width="1.544" height="1.544"/>
<rect x="18.293" y="33.457" width="1.544" height="1.544"/>
<rect x="23.386" y="33.457" fill="#56565B" width="1.544" height="1.544"/>
<rect x="25.083" y="33.457" fill="#56565B" width="1.544" height="1.544"/>
<rect x="26.781" y="33.457" width="1.544" height="1.544"/>
<rect x="28.479" y="33.457" width="1.545" height="1.544"/>
<rect x="35.253" y="4.968" fill="#7554A3" width="1.544" height="1.544"/>
<rect x="30.16" y="6.625" fill="#826BB0" width="1.545" height="1.544"/>
<rect x="31.857" y="6.625" fill="#7554A3" width="1.545" height="1.544"/>
<rect x="33.556" y="6.625" fill="#7554A3" width="1.545" height="1.544"/>
<rect x="30.16" y="8.328" fill="#7554A3" width="1.545" height="1.544"/>
<rect x="35.253" y="8.328" fill="#7554A3" width="1.544" height="1.544"/>
<rect x="30.16" y="9.986" fill="#7554A3" width="1.545" height="1.544"/>
<rect x="31.857" y="9.986" fill="#7554A3" width="1.545" height="1.544"/>
<rect x="33.556" y="9.986" fill="#7554A3" width="1.545" height="1.544"/>
<rect x="30.16" y="11.687" fill="#7554A3" width="1.545" height="1.545"/>
<rect x="36.951" y="11.687" fill="#7554A3" width="1.545" height="1.545"/>
<rect x="30.16" y="13.345" fill="#826BB0" width="1.545" height="1.544"/>
<rect x="31.857" y="13.345" fill="#826BB0" width="1.545" height="1.544"/>
<rect x="33.556" y="13.345" fill="#826BB0" width="1.545" height="1.544"/>
<rect x="35.253" y="13.345" fill="#826BB0" width="1.544" height="1.544"/>
<rect x="30.16" y="15.002" fill="#826BB0" width="1.545" height="1.544"/>
<rect x="31.857" y="15.002" fill="#826BB0" width="1.545" height="1.544"/>
<rect x="33.556" y="15.002" fill="#826BB0" width="1.545" height="1.544"/>
<rect x="35.253" y="15.002" fill="#826BB0" width="1.544" height="1.544"/>
<rect x="30.16" y="16.66" fill="#565751" width="1.545" height="1.544"/>
<rect x="31.857" y="16.66" fill="#826BB0" width="1.545" height="1.544"/>
<rect x="33.556" y="16.66" fill="#826BB0" width="1.545" height="1.544"/>
<rect x="35.253" y="16.66" fill="#826BB0" width="1.544" height="1.544"/>
<rect x="36.951" y="16.66" fill="#826BB0" width="1.545" height="1.544"/>
<rect x="30.16" y="18.361" fill="#565751" width="1.545" height="1.544"/>
<rect x="31.857" y="18.361" width="1.545" height="1.544"/>
<rect x="33.556" y="18.361" width="1.545" height="1.544"/>
<rect x="36.951" y="18.361" fill="#826BB0" width="1.545" height="1.544"/>
<rect x="30.16" y="20.019" fill="#565751" width="1.545" height="1.545"/>
<rect x="31.857" y="20.019" width="1.545" height="1.545"/>
<rect x="33.556" y="20.019" width="1.545" height="1.545"/>
<rect x="30.16" y="21.722" fill="#826BB0" width="1.545" height="1.544"/>
<rect x="31.857" y="21.722" fill="#826BB0" width="1.545" height="1.544"/>
<rect x="33.556" y="21.722" fill="#826BB0" width="1.545" height="1.544"/>
<rect x="30.16" y="23.379" fill="#826BB0" width="1.545" height="1.545"/>
<rect x="31.857" y="23.379" fill="#826BB0" width="1.545" height="1.545"/>
<rect x="33.556" y="23.379" fill="#826BB0" width="1.545" height="1.545"/>
<rect x="30.16" y="25.08" fill="#826BB0" width="1.545" height="1.545"/>
<rect x="31.857" y="25.08" fill="#FFFFFF" stroke="#000000" stroke-width="0.1" stroke-miterlimit="10" width="1.545" height="1.545"/>
<rect x="33.556" y="25.08" fill="#826BB0" width="1.545" height="1.545"/>
<rect x="30.16" y="26.738" fill="#FFFFFF" stroke="#000000" stroke-width="0.1" stroke-miterlimit="10" width="1.545" height="1.544"/>
<rect x="31.857" y="26.738" fill="#826BB0" width="1.545" height="1.544"/>
<rect x="33.556" y="26.738" width="1.545" height="1.544"/>
<rect x="30.16" y="28.44" fill="#826BB0" width="1.545" height="1.544"/>
<rect x="31.857" y="28.44" width="1.545" height="1.544"/>
<rect x="33.556" y="28.44" width="1.545" height="1.544"/>
<rect x="30.16" y="30.098" width="1.545" height="1.545"/>
<rect x="31.857" y="30.098" width="1.545" height="1.545"/>
<rect x="33.556" y="30.098" fill="#8368AE" width="1.545" height="1.545"/>
<rect x="30.16" y="31.799" width="1.545" height="1.544"/>
<rect x="31.857" y="31.775" fill="#8268AE" width="1.545" height="1.545"/>
<rect x="33.556" y="31.775" fill="#8268AE" width="1.545" height="1.545"/>
<rect x="35.253" y="31.775" fill="#8268AE" width="1.544" height="1.545"/>
<rect x="30.16" y="33.457" width="1.545" height="1.544"/>
<rect x="31.857" y="33.457" width="1.545" height="1.544"/>
<rect x="33.556" y="33.433" fill="#8268AE" width="1.545" height="1.545"/>
<rect x="35.253" y="33.433" fill="#8268AE" width="1.544" height="1.545"/>
<rect x="13.201" y="35.113" fill="#8368AE" width="1.544" height="1.543"/>
<rect x="14.898" y="35.113" fill="#8368AE" width="1.544" height="1.543"/>
<rect x="16.596" y="35.113" width="1.544" height="1.543"/>
<rect x="18.293" y="35.113" width="1.544" height="1.543"/>
<rect x="19.991" y="35.113" width="1.544" height="1.543"/>
<rect x="21.688" y="35.113" width="1.544" height="1.543"/>
<rect x="23.386" y="35.113" fill="#56565B" width="1.544" height="1.543"/>
<rect x="25.083" y="35.113" fill="#56565B" width="1.544" height="1.543"/>
<rect x="26.781" y="35.113" width="1.544" height="1.543"/>
<rect x="28.479" y="35.113" width="1.545" height="1.543"/>
<rect x="19.991" y="36.771" width="1.544" height="1.544"/>
<rect x="21.688" y="36.771" width="1.544" height="1.544"/>
<rect x="11.503" y="36.771" width="1.544" height="1.544"/>
<rect x="13.201" y="36.771" fill="#8368AE" width="1.544" height="1.544"/>
<rect x="14.898" y="36.771" fill="#8368AE" width="1.544" height="1.544"/>
<rect x="16.596" y="36.771" width="1.544" height="1.544"/>
<rect x="18.293" y="36.771" width="1.544" height="1.544"/>
<rect x="23.386" y="36.771" width="1.544" height="1.544"/>
<rect x="25.083" y="36.771" width="1.544" height="1.544"/>
<rect x="26.781" y="36.771" width="1.544" height="1.544"/>
<rect x="28.479" y="36.771" width="1.545" height="1.544"/>
<rect x="11.503" y="38.473" width="1.544" height="1.544"/>
<rect x="13.201" y="38.473" fill="#8368AE" width="1.544" height="1.544"/>
<rect x="14.898" y="38.473" fill="#8368AE" width="1.544" height="1.544"/>
<rect x="16.596" y="38.473" width="1.544" height="1.544"/>
<rect x="18.293" y="38.473" width="1.544" height="1.544"/>
<rect x="19.991" y="38.473" width="1.544" height="1.544"/>
<rect x="21.688" y="38.473" width="1.544" height="1.544"/>
<rect x="23.386" y="38.473" width="1.544" height="1.544"/>
<rect x="25.083" y="38.473" width="1.544" height="1.544"/>
<rect x="26.781" y="38.473" width="1.544" height="1.544"/>
<rect x="28.479" y="38.473" width="1.545" height="1.544"/>
<rect x="19.991" y="40.131" width="1.544" height="1.544"/>
<rect x="21.688" y="40.131" width="1.544" height="1.544"/>
<rect x="11.503" y="40.131" width="1.544" height="1.544"/>
<rect x="13.201" y="40.131" width="1.544" height="1.544"/>
<rect x="14.898" y="40.131" width="1.544" height="1.544"/>
<rect x="18.293" y="40.131" width="1.544" height="1.544"/>
<rect x="26.781" y="40.131" width="1.544" height="1.544"/>
<rect x="28.479" y="40.131" width="1.545" height="1.544"/>
<rect x="18.293" y="41.831" width="1.544" height="1.545"/>
<rect x="19.991" y="41.831" width="1.544" height="1.545"/>
<rect x="21.688" y="41.831" width="1.544" height="1.545"/>
<rect x="26.781" y="41.831" width="1.544" height="1.545"/>
<rect x="28.479" y="41.831" width="1.545" height="1.545"/>
<rect x="19.991" y="43.488" width="1.544" height="1.545"/>
<rect x="21.688" y="43.488" width="1.544" height="1.545"/>
<rect x="16.596" y="43.488" width="1.544" height="1.545"/>
<rect x="18.293" y="43.488" width="1.544" height="1.545"/>
<rect x="26.781" y="43.488" width="1.544" height="1.545"/>
<rect x="28.479" y="43.488" width="1.545" height="1.545"/>
<rect x="30.16" y="35.113" width="1.545" height="1.543"/>
<rect x="31.857" y="35.113" width="1.545" height="1.543"/>
<rect x="33.556" y="35.089" fill="#8268AE" width="1.545" height="1.545"/>
<rect x="35.253" y="35.089" fill="#8268AE" width="1.544" height="1.545"/>
<rect x="30.16" y="36.771" width="1.545" height="1.544"/>
<rect x="31.857" y="36.771" width="1.545" height="1.544"/>
<rect x="33.556" y="36.747" fill="#8268AE" width="1.545" height="1.544"/>
<rect x="35.253" y="36.747" fill="#8268AE" width="1.544" height="1.544"/>
<rect x="36.951" y="36.771" width="1.545" height="1.544"/>
<rect x="30.16" y="38.473" width="1.545" height="1.544"/>
<rect x="31.857" y="38.473" width="1.545" height="1.544"/>
<rect x="33.556" y="38.449" fill="#8268AE" width="1.545" height="1.545"/>
<rect x="35.253" y="38.449" fill="#8268AE" width="1.544" height="1.545"/>
<rect x="36.951" y="38.473" width="1.545" height="1.544"/>
<rect x="30.16" y="40.131" width="1.545" height="1.544"/>
<rect x="33.556" y="40.131" width="1.545" height="1.544"/>
<rect x="35.253" y="40.131" width="1.544" height="1.544"/>
<rect x="36.951" y="40.131" width="1.545" height="1.544"/>
<rect x="30.16" y="41.831" width="1.545" height="1.545"/>
<rect x="30.16" y="43.488" width="1.545" height="1.545"/>
<rect x="31.857" y="43.488" width="1.545" height="1.545"/>
</svg>
